<?xml version="1.0" standalone="no"?><!DOCTYPE svg PUBLIC "-//W3C//DTD SVG 1.1//EN" "http://www.w3.org/Graphics/SVG/1.1/DTD/svg11.dtd"><svg t="1590137961120" class="icon" viewBox="0 0 1024 1024" version="1.1" xmlns="http://www.w3.org/2000/svg" p-id="2266" xmlns:xlink="http://www.w3.org/1999/xlink" width="200" height="200"><defs><style type="text/css"></style></defs><path d="M865.792 67.456l-424.96 118.336c-51.52 13.376-93.248 62.208-93.248 109.12v407.936s-30.784-18.88-99.392-10.048c-100.736 13.056-182.4 83.392-182.4 157.184s81.664 118.976 182.4 105.984c100.8-12.928 174.656-81.152 174.656-155.008V452.672c0-32.704 43.264-46.72 43.264-46.72l375.808-107.2s41.536-12.672 41.536 22.336v279.808s-38.336-20.032-106.88-12.416c-100.736 11.072-182.464 79.936-182.464 153.728s81.664 120.512 182.464 109.376c100.8-11.136 182.464-79.936 182.464-153.792V128.128c-0.064-46.848-41.792-73.984-93.248-60.672z" p-id="2267"></path></svg>